<svg width="1000" height="800" style="background-color: black;" xmlns="http://www.w3.org/2000/svg" xmlns:xlink="http://www.w3.org/1999/xlink"><defs><g id="twitterIcon"><path d="M481.36 186.66C481.36 148.48 450.407 117.523 412.223 117.523H287.773C249.593 117.523 218.636 148.476 218.636 186.66V324.93C218.636 340.2 231.019 352.582 246.288 352.582C261.557 352.582 273.94 340.199 273.94 324.93V193.57C273.94 189.758 277.03 186.66 280.846 186.66C284.678 186.66 287.76 189.758 287.76 193.57V532.34C287.76 547.617 300.143 559.992 315.412 559.992C330.681 559.992 343.064 547.609 343.064 532.34L343.068 331.84C343.068 328.02 346.158 324.93 349.974 324.93C353.806 324.93 356.885 328.031 356.885 331.84V532.34C356.885 547.617 369.268 559.992 384.537 559.992C399.806 559.992 412.189 547.609 412.189 532.34V193.57C412.189 189.758 415.278 186.66 419.087 186.66C422.919 186.66 426.001 189.758 426.001 193.57V324.93C426.001 340.207 438.384 352.582 453.653 352.582C468.923 352.582 481.305 340.199 481.305 324.93V186.65L481.36 186.66Z" transform="translate(0,0) scale(.1)"/><path d="M401.85 51.852C401.85 80.489 378.635 103.7 349.998 103.7C321.361 103.7 298.146 80.489 298.146 51.852C298.146 23.215 321.361 0 349.998 0C378.635 0 401.85 23.215 401.85 51.852" transform="translate(0,0) scale(0.1)"/></g></defs><g transform="translate(120,120)"><use xlink:href="#twitterIcon" id="id0" x="0" y="0" fill="white" style="stroke: black;"/><use xlink:href="#twitterIcon" id="id1" x="60" y="0" fill="white" style="stroke: black;"/><use xlink:href="#twitterIcon" id="id2" x="120" y="0" fill="white" style="stroke: black;"/><use xlink:href="#twitterIcon" id="id3" x="180" y="0" fill="white" style="stroke: black;"/><use xlink:href="#twitterIcon" id="id4" x="240" y="0" fill="white" style="stroke: black;"/><use xlink:href="#twitterIcon" id="id5" x="300" y="0" fill="white" style="stroke: black;"/><use xlink:href="#twitterIcon" id="id6" x="360" y="0" fill="white" style="stroke: black;"/><use xlink:href="#twitterIcon" id="id7" x="420" y="0" fill="white" style="stroke: black;"/><use xlink:href="#twitterIcon" id="id8" x="480" y="0" fill="white" style="stroke: black;"/><use xlink:href="#twitterIcon" id="id9" x="540" y="0" fill="white" style="stroke: black;"/><use xlink:href="#twitterIcon" id="id10" x="0" y="60" fill="white" style="stroke: black;"/><use xlink:href="#twitterIcon" id="id11" x="60" y="60" fill="white" style="stroke: black;"/><use xlink:href="#twitterIcon" id="id12" x="120" y="60" fill="white" style="stroke: black;"/><use xlink:href="#twitterIcon" id="id13" x="180" y="60" fill="white" style="stroke: black;"/><use xlink:href="#twitterIcon" id="id14" x="240" y="60" fill="white" style="stroke: black;"/><use xlink:href="#twitterIcon" id="id15" x="300" y="60" fill="white" style="stroke: black;"/><use xlink:href="#twitterIcon" id="id16" x="360" y="60" fill="white" style="stroke: black;"/><use xlink:href="#twitterIcon" id="id17" x="420" y="60" fill="white" style="stroke: black;"/><use xlink:href="#twitterIcon" id="id18" x="480" y="60" fill="white" style="stroke: black;"/><use xlink:href="#twitterIcon" id="id19" x="540" y="60" fill="white" style="stroke: black;"/><use xlink:href="#twitterIcon" id="id20" x="0" y="120" fill="white" style="stroke: black;"/><use xlink:href="#twitterIcon" id="id21" x="60" y="120" fill="white" style="stroke: black;"/><use xlink:href="#twitterIcon" id="id22" x="120" y="120" fill="white" style="stroke: black;"/><use xlink:href="#twitterIcon" id="id23" x="180" y="120" fill="white" style="stroke: black;"/><use xlink:href="#twitterIcon" id="id24" x="240" y="120" fill="white" style="stroke: black;"/><use xlink:href="#twitterIcon" id="id25" x="300" y="120" fill="white" style="stroke: black;"/><use xlink:href="#twitterIcon" id="id26" x="360" y="120" fill="white" style="stroke: black;"/><use xlink:href="#twitterIcon" id="id27" x="420" y="120" fill="white" style="stroke: black;"/><use xlink:href="#twitterIcon" id="id28" x="480" y="120" fill="white" style="stroke: black;"/><use xlink:href="#twitterIcon" id="id29" x="540" y="120" fill="white" style="stroke: black;"/><use xlink:href="#twitterIcon" id="id30" x="0" y="180" fill="white" style="stroke: black;"/><use xlink:href="#twitterIcon" id="id31" x="60" y="180" fill="white" style="stroke: black;"/><use xlink:href="#twitterIcon" id="id32" x="120" y="180" fill="white" style="stroke: black;"/><use xlink:href="#twitterIcon" id="id33" x="180" y="180" fill="white" style="stroke: black;"/><use xlink:href="#twitterIcon" id="id34" x="240" y="180" fill="white" style="stroke: black;"/><use xlink:href="#twitterIcon" id="id35" x="300" y="180" fill="white" style="stroke: black;"/><use xlink:href="#twitterIcon" id="id36" x="360" y="180" fill="white" style="stroke: black;"/><use xlink:href="#twitterIcon" id="id37" x="420" y="180" fill="white" style="stroke: black;"/><use xlink:href="#twitterIcon" id="id38" x="480" y="180" fill="white" style="stroke: black;"/><use xlink:href="#twitterIcon" id="id39" x="540" y="180" fill="white" style="stroke: black;"/><use xlink:href="#twitterIcon" id="id40" x="0" y="240" fill="white" style="stroke: black;"/><use xlink:href="#twitterIcon" id="id41" x="60" y="240" fill="white" style="stroke: black;"/><use xlink:href="#twitterIcon" id="id42" x="120" y="240" fill="white" style="stroke: black;"/><use xlink:href="#twitterIcon" id="id43" x="180" y="240" fill="white" style="stroke: black;"/><use xlink:href="#twitterIcon" id="id44" x="240" y="240" fill="grey" style="stroke: black;"/><use xlink:href="#twitterIcon" id="id45" x="300" y="240" fill="grey" style="stroke: black;"/><use xlink:href="#twitterIcon" id="id46" x="360" y="240" fill="grey" style="stroke: black;"/><use xlink:href="#twitterIcon" id="id47" x="420" y="240" fill="grey" style="stroke: black;"/><use xlink:href="#twitterIcon" id="id48" x="480" y="240" fill="grey" style="stroke: black;"/><use xlink:href="#twitterIcon" id="id49" x="540" y="240" fill="grey" style="stroke: black;"/><use xlink:href="#twitterIcon" id="id50" x="0" y="300" fill="grey" style="stroke: black;"/><use xlink:href="#twitterIcon" id="id51" x="60" y="300" fill="grey" style="stroke: black;"/><use xlink:href="#twitterIcon" id="id52" x="120" y="300" fill="grey" style="stroke: black;"/><use xlink:href="#twitterIcon" id="id53" x="180" y="300" fill="grey" style="stroke: black;"/><use xlink:href="#twitterIcon" id="id54" x="240" y="300" fill="grey" style="stroke: black;"/><use xlink:href="#twitterIcon" id="id55" x="300" y="300" fill="grey" style="stroke: black;"/><use xlink:href="#twitterIcon" id="id56" x="360" y="300" fill="grey" style="stroke: black;"/><use xlink:href="#twitterIcon" id="id57" x="420" y="300" fill="grey" style="stroke: black;"/><use xlink:href="#twitterIcon" id="id58" x="480" y="300" fill="grey" style="stroke: black;"/><use xlink:href="#twitterIcon" id="id59" x="540" y="300" fill="grey" style="stroke: black;"/><use xlink:href="#twitterIcon" id="id60" x="0" y="360" fill="grey" style="stroke: black;"/><use xlink:href="#twitterIcon" id="id61" x="60" y="360" fill="grey" style="stroke: black;"/><use xlink:href="#twitterIcon" id="id62" x="120" y="360" fill="grey" style="stroke: black;"/><use xlink:href="#twitterIcon" id="id63" x="180" y="360" fill="grey" style="stroke: black;"/><use xlink:href="#twitterIcon" id="id64" x="240" y="360" fill="grey" style="stroke: black;"/><use xlink:href="#twitterIcon" id="id65" x="300" y="360" fill="grey" style="stroke: black;"/><use xlink:href="#twitterIcon" id="id66" x="360" y="360" fill="grey" style="stroke: black;"/><use xlink:href="#twitterIcon" id="id67" x="420" y="360" fill="grey" style="stroke: black;"/><use xlink:href="#twitterIcon" id="id68" x="480" y="360" fill="grey" style="stroke: black;"/><use xlink:href="#twitterIcon" id="id69" x="540" y="360" fill="grey" style="stroke: black;"/><use xlink:href="#twitterIcon" id="id70" x="0" y="420" fill="grey" style="stroke: black;"/><use xlink:href="#twitterIcon" id="id71" x="60" y="420" fill="grey" style="stroke: black;"/><use xlink:href="#twitterIcon" id="id72" x="120" y="420" fill="grey" style="stroke: black;"/><use xlink:href="#twitterIcon" id="id73" x="180" y="420" fill="grey" style="stroke: black;"/><use xlink:href="#twitterIcon" id="id74" x="240" y="420" fill="grey" style="stroke: black;"/><use xlink:href="#twitterIcon" id="id75" x="300" y="420" fill="grey" style="stroke: black;"/><use xlink:href="#twitterIcon" id="id76" x="360" y="420" fill="grey" style="stroke: black;"/><use xlink:href="#twitterIcon" id="id77" x="420" y="420" fill="grey" style="stroke: black;"/><use xlink:href="#twitterIcon" id="id78" x="480" y="420" fill="grey" style="stroke: black;"/><use xlink:href="#twitterIcon" id="id79" x="540" y="420" fill="grey" style="stroke: black;"/><use xlink:href="#twitterIcon" id="id80" x="0" y="480" fill="grey" style="stroke: black;"/><use xlink:href="#twitterIcon" id="id81" x="60" y="480" fill="grey" style="stroke: black;"/><use xlink:href="#twitterIcon" id="id82" x="120" y="480" fill="grey" style="stroke: black;"/><use xlink:href="#twitterIcon" id="id83" x="180" y="480" fill="grey" style="stroke: black;"/><use xlink:href="#twitterIcon" id="id84" x="240" y="480" fill="grey" style="stroke: black;"/><use xlink:href="#twitterIcon" id="id85" x="300" y="480" fill="grey" style="stroke: black;"/><use xlink:href="#twitterIcon" id="id86" x="360" y="480" fill="grey" style="stroke: black;"/><use xlink:href="#twitterIcon" id="id87" x="420" y="480" fill="grey" style="stroke: black;"/><use xlink:href="#twitterIcon" id="id88" x="480" y="480" fill="grey" style="stroke: black;"/><use xlink:href="#twitterIcon" id="id89" x="540" y="480" fill="grey" style="stroke: black;"/><use xlink:href="#twitterIcon" id="id90" x="0" y="540" fill="grey" style="stroke: black;"/><use xlink:href="#twitterIcon" id="id91" x="60" y="540" fill="grey" style="stroke: black;"/><use xlink:href="#twitterIcon" id="id92" x="120" y="540" fill="grey" style="stroke: black;"/><use xlink:href="#twitterIcon" id="id93" x="180" y="540" fill="grey" style="stroke: black;"/><use xlink:href="#twitterIcon" id="id94" x="240" y="540" fill="grey" style="stroke: black;"/><use xlink:href="#twitterIcon" id="id95" x="300" y="540" fill="grey" style="stroke: black;"/><use xlink:href="#twitterIcon" id="id96" x="360" y="540" fill="grey" style="stroke: black;"/><use xlink:href="#twitterIcon" id="id97" x="420" y="540" fill="grey" style="stroke: black;"/><use xlink:href="#twitterIcon" id="id98" x="480" y="540" fill="grey" style="stroke: black;"/><use xlink:href="#twitterIcon" id="id99" x="540" y="540" fill="grey" style="stroke: black;"/></g><text x="500" y="72.72727272727273" text-anchor="middle" font-weight="bold" style="font-size: 25px; fill: white;">2.5 million Minnesotans live &gt;1 mile away from a Grocery Store</text><image x="750" y="320" xlink:href="https://www.pikpng.com/pngl/b/568-5688511_man-pictogram-male-restroom-png-image-person-icon.png" width="100" height="100" style="fill: white;"/><text x="900" y="372.093023255814" text-anchor="middle" font-weight="bold" style="font-size: 20px; fill: white;">= 50,000 people</text></svg>